<svg width="120" height="44" viewBox="0 0 120 44" fill="none" xmlns="http://www.w3.org/2000/svg">
<path d="M30.1306 23.4481C29.3894 23.4192 28.6499 23.5392 27.9559 23.8009C27.2618 24.0627 26.6272 24.4609 26.0896 24.9721C25.4974 25.6293 25.0405 26.3968 24.745 27.2307C24.4495 28.0646 24.3213 28.9486 24.3676 29.8321C24.3214 30.7154 24.4497 31.5992 24.7452 32.4329C25.0407 33.2666 25.4975 34.0339 26.0896 34.6911C27.2059 35.6822 28.6469 36.2295 30.1396 36.2295C31.6324 36.2295 33.0734 35.6822 34.1896 34.6911C35.37 33.3561 35.9803 31.6117 35.8896 29.8321C35.9807 28.052 35.3704 26.3072 34.1896 24.9721C33.6485 24.4611 33.0108 24.0632 32.3141 23.8015C31.6173 23.5398 30.8744 23.4197 30.1306 23.4481ZM32.4686 33.3601C32.1866 33.705 31.8291 33.9805 31.4238 34.1655C31.0184 34.3505 30.576 34.44 30.1306 34.4271C29.6876 34.4399 29.2475 34.3504 28.8448 34.1653C28.442 33.9802 28.0874 33.7046 27.8086 33.3601C27.1286 32.3144 26.8088 31.0752 26.8976 29.8311C26.8113 28.5871 27.1309 27.3487 27.8086 26.3021C28.0884 25.9597 28.4436 25.6867 28.8464 25.5046C29.2493 25.3224 29.6888 25.236 30.1306 25.2521C30.5747 25.2362 31.0166 25.3227 31.4219 25.5048C31.8273 25.6868 32.1854 25.9596 32.4686 26.3021C33.1428 27.3499 33.4587 28.5883 33.3686 29.8311C33.4612 31.0737 33.1452 32.3136 32.4686 33.3601Z" fill="#081D58"/>
<path d="M61.6955 24.972C60.5738 23.9897 59.1335 23.4482 57.6425 23.4482C56.1514 23.4482 54.7112 23.9897 53.5895 24.972C52.4004 26.3029 51.7857 28.0498 51.8795 29.832C51.7879 31.6147 52.4047 33.3612 53.5955 34.691C54.7127 35.6826 56.1547 36.2302 57.6485 36.2302C59.1423 36.2302 60.5842 35.6826 61.7015 34.691C62.8838 33.3572 63.4944 31.612 63.4015 29.832C63.4951 28.0516 62.8845 26.3059 61.7015 24.972M59.9815 33.36C59.6923 33.6952 59.3344 33.964 58.9319 34.1483C58.5295 34.3326 58.0921 34.428 57.6495 34.428C57.2069 34.428 56.7694 34.3326 56.367 34.1483C55.9646 33.964 55.6066 33.6952 55.3175 33.36C54.6408 32.3134 54.3225 31.0753 54.4105 29.832C54.3251 28.5887 54.6432 27.3511 55.3175 26.303C55.6098 25.973 55.9688 25.7088 56.3708 25.5278C56.7728 25.3468 57.2086 25.2532 57.6495 25.2532C58.0903 25.2532 58.5262 25.3468 58.9282 25.5278C59.3302 25.7088 59.6892 25.973 59.9815 26.303C60.655 27.3516 60.9708 28.59 60.8815 29.833C60.9735 31.0757 60.6575 32.3144 59.9815 33.361" fill="#081D58"/>
<path d="M18.673 35.938C18.567 35.8236 18.485 35.6891 18.4319 35.5424C18.3788 35.3957 18.3557 35.2398 18.364 35.084V30.648L22.5 23.717H19.668C19.868 23.917 19.892 24.247 19.644 24.637L17.405 28.517C15.522 25.108 15.524 25.011 15.183 24.389C14.918 23.921 14.692 23.717 14.189 23.717H11.959C12.2518 24.0303 12.5008 24.3818 12.699 24.762L15.999 30.616V35.083C16.0074 35.2388 15.9844 35.3946 15.9315 35.5412C15.8786 35.6879 15.7968 35.8225 15.691 35.937L18.673 35.938Z" fill="#081D58"/>
<path d="M39.834 35.9381C39.9407 35.8241 40.0233 35.6897 40.0768 35.5429C40.1302 35.3961 40.1534 35.2401 40.145 35.0841V24.5671C40.154 24.4112 40.131 24.2552 40.0776 24.1085C40.0241 23.9618 39.9412 23.8276 39.834 23.7141H43.881C45.821 23.7141 47.515 24.6501 47.515 26.4681C47.5261 26.933 47.417 27.3929 47.1981 27.8032C46.9793 28.2135 46.6582 28.5603 46.266 28.8101C46.9198 29.0312 47.4878 29.4517 47.8902 30.0124C48.2925 30.5732 48.509 31.2459 48.509 31.9361C48.5097 32.5169 48.3773 33.0901 48.122 33.6117C47.8666 34.1333 47.4951 34.5895 47.036 34.9451C46.134 35.6368 45.0165 35.9875 43.881 35.9351L39.834 35.9381ZM42.514 28.3321C43.0984 28.3909 43.6885 28.3195 44.242 28.1231C44.4946 28.024 44.7102 27.8488 44.8588 27.6218C45.0075 27.3949 45.082 27.1273 45.072 26.8561C45.061 26.6613 45.0112 26.4707 44.9257 26.2953C44.8402 26.12 44.7205 25.9634 44.5738 25.8349C44.4271 25.7063 44.2562 25.6082 44.0711 25.5465C43.886 25.4847 43.6905 25.4604 43.496 25.4751C43.1641 25.4638 42.8325 25.506 42.514 25.6001V28.3321ZM45.162 33.8801C45.4542 33.6872 45.6888 33.4187 45.8408 33.1032C45.9927 32.7877 46.0564 32.4369 46.025 32.0881C46.0113 31.8045 45.9394 31.5268 45.8139 31.2721C45.6883 31.0175 45.5117 30.7914 45.2951 30.6078C45.0785 30.4243 44.8264 30.2873 44.5546 30.2053C44.2828 30.1233 43.997 30.098 43.715 30.1311C43.3139 30.1271 42.9129 30.1505 42.515 30.2011V34.1181C43.3981 34.3546 44.3365 34.2699 45.163 33.8791" fill="#081D58"/>
<path d="M1.31002 35.0839C1.3183 35.2398 1.29512 35.3957 1.24186 35.5424C1.18861 35.6891 1.10636 35.8236 1.00002 35.9379H3.98802C3.88159 35.8237 3.79928 35.6892 3.74602 35.5425C3.69276 35.3957 3.66963 35.2398 3.67802 35.0839V30.3089L7.14702 35.2669C7.2425 35.47 7.39425 35.6415 7.58426 35.761C7.77428 35.8804 7.99458 35.9429 8.21902 35.9409H10.619C10.2919 35.6272 10.003 35.2762 9.75802 34.8949L5.83802 29.3409L9.83802 23.7169H6.89902C7.05102 23.9169 7.07102 24.1659 6.78402 24.6469L3.68402 29.1249V24.5669C3.67511 24.411 3.69799 24.2548 3.75128 24.108C3.80457 23.9612 3.88716 23.8268 3.99402 23.7129H0.999023C1.10579 23.8269 1.18832 23.9613 1.2416 24.1081C1.29489 24.2549 1.31782 24.411 1.30902 24.5669L1.31002 35.0839Z" fill="#081D58"/>
<path d="M67.2346 6.979C66.9569 6.72281 66.6307 6.52493 66.2752 6.39705C65.9197 6.26917 65.5421 6.2139 65.1649 6.2345C64.7877 6.25511 64.4184 6.35117 64.0789 6.51701C63.7395 6.68285 63.4367 6.91509 63.1886 7.2C61.7756 8.686 60.6766 9.239 59.3676 9.183C57.5396 9.104 56.6376 7.691 55.6986 5.907C55.3312 5.05654 54.7264 4.33002 53.9566 3.81445C53.1869 3.29888 52.2849 3.01611 51.3586 3C50.7138 3.00446 50.0767 3.14038 49.4862 3.39946C48.8957 3.65853 48.3643 4.03532 47.9243 4.50677C47.4844 4.97823 47.1453 5.53446 46.9276 6.14144C46.71 6.74843 46.6185 7.39343 46.6586 8.037C46.6945 9.62273 47.1673 11.1678 48.025 12.502C48.8827 13.8363 50.0919 14.9079 51.5196 15.599C53.1121 16.3981 54.8641 16.8284 56.6456 16.858C56.5252 17.9401 56.2905 19.0063 55.9456 20.039H59.3086C58.9494 18.9729 58.7103 17.8701 58.5956 16.751C63.5216 16.112 65.8596 13.872 67.1416 11.74C67.6834 10.9123 67.9875 9.95171 68.0206 8.963C68.0307 8.59686 67.967 8.23243 67.8334 7.89141C67.6997 7.55039 67.4988 7.23976 67.2426 6.978M51.3816 9.536C51.0412 9.55969 50.7014 9.48175 50.4053 9.31206C50.1092 9.14237 49.8701 8.88857 49.7185 8.58286C49.5668 8.27714 49.5094 7.93328 49.5534 7.59486C49.5974 7.25645 49.741 6.93873 49.9658 6.682C50.1906 6.42527 50.4866 6.24108 50.8163 6.1528C51.1459 6.06452 51.4944 6.07612 51.8174 6.18613C52.1405 6.29614 52.4236 6.49961 52.6308 6.77073C52.8381 7.04185 52.9602 7.36841 52.9816 7.709C53.0104 8.16315 52.8583 8.61024 52.5585 8.95258C52.2587 9.29492 51.8356 9.50467 51.3816 9.536Z" fill="#6DB329"/>
<path d="M113.393 28.3181H111.536V33.8781H107.988V35.3341H119.006V33.8781H113.398L113.393 28.3181Z" fill="#081D58"/>
<path d="M115.861 32.4649H117.072C117.526 30.1329 117.848 27.2179 118.036 25.2649C118.141 24.2109 118.146 23.6589 117.199 23.6589H108.923V25.1139H115.861V32.4649Z" fill="#081D58"/>
<path d="M97.3025 28.4399H105.357V23.6089H96.1495V27.2859C96.1264 27.4429 96.1403 27.603 96.19 27.7537C96.2398 27.9044 96.3239 28.0413 96.4359 28.1538C96.5478 28.2662 96.6844 28.351 96.8349 28.4013C96.9853 28.4517 97.1454 28.4663 97.3025 28.4439M103.285 26.9849H98.2225V25.0639H103.285V26.9849Z" fill="#081D58"/>
<path d="M98.4728 31.853H96.4028V34.72C96.3794 34.8765 96.3929 35.0363 96.4422 35.1867C96.4915 35.337 96.5752 35.4738 96.6867 35.5861C96.7982 35.6984 96.9344 35.783 97.0844 35.8334C97.2344 35.8837 97.3941 35.8983 97.5508 35.876H105.38V34.42H98.4718L98.4728 31.853Z" fill="#081D58"/>
<path d="M95.1123 30.9089H99.9243V33.1769H101.995V30.9089H106.38V29.4529H95.1123V30.9089Z" fill="#081D58"/>
<path d="M76.0076 28.7119H74.1516V33.8779H72.8866V28.7119H71.0286V33.8779H68.5166V35.3349H79.9866V33.8779H76.0036L76.0076 28.7119Z" fill="#081D58"/>
<path d="M77.0538 32.4649H78.2638C78.7188 30.1329 79.0388 27.2179 79.2288 25.2649C79.3288 24.2109 79.3398 23.6589 78.3908 23.6589H69.7568V25.1139H77.0568L77.0538 32.4649Z" fill="#081D58"/>
<path d="M88.5873 31.3931H86.5163V33.8791H81.7773V35.3351H93.2573V33.8781H88.5873V31.3931Z" fill="#081D58"/>
<path d="M84.5396 30.6091H90.4896C90.6465 30.6314 90.8064 30.6168 90.9566 30.5666C91.1069 30.5163 91.2434 30.4317 91.3553 30.3195C91.4672 30.2074 91.5514 30.0706 91.6013 29.9202C91.6511 29.7698 91.6653 29.6099 91.6426 29.4531V23.5381H89.5676V25.9381H85.4596V23.5381H83.3846V29.4531C83.3618 29.6101 83.376 29.7702 83.4259 29.9208C83.4759 30.0714 83.5603 30.2082 83.6725 30.3205C83.7846 30.4327 83.9214 30.5172 84.0719 30.5673C84.2224 30.6174 84.3826 30.6317 84.5396 30.6091ZM89.5686 27.3881V29.3571H85.4606V27.3881H89.5686Z" fill="#081D58"/>
</svg>
