<svg width="273" height="75" viewBox="0 0 273 75" fill="none" xmlns="http://www.w3.org/2000/svg">
<g clip-path="url(#clip0_102_289)">
<path d="M68.5459 46.4875C66.8597 46.4226 65.1773 46.6921 63.5984 47.2799C62.0194 47.8679 60.5757 48.7622 59.3526 49.9104C58.0054 51.3864 56.9659 53.1102 56.2936 54.9832C55.6214 56.8561 55.3297 58.8416 55.4351 60.8259C55.33 62.8098 55.6218 64.7948 56.2941 66.6673C56.9664 68.5397 58.0056 70.2631 59.3526 71.7392C61.8922 73.9652 65.1705 75.1944 68.5664 75.1944C71.9625 75.1944 75.2408 73.9652 77.7801 71.7392C80.4655 68.7408 81.854 64.8229 81.6476 60.8259C81.8549 56.8278 80.4664 52.909 77.7801 49.9104C76.5491 48.7627 75.0983 47.869 73.5133 47.2812C71.9281 46.6935 70.238 46.4237 68.5459 46.4875ZM73.8648 68.7497C73.2233 69.5244 72.41 70.1432 71.4879 70.5587C70.5656 70.9742 69.5592 71.1752 68.5459 71.1462C67.5381 71.175 66.5368 70.9739 65.6207 70.5582C64.7043 70.1425 63.8976 69.5235 63.2633 68.7497C61.7163 66.4011 60.9888 63.6179 61.1908 60.8236C60.9945 58.0296 61.7216 55.2482 63.2633 52.8975C63.8999 52.1285 64.708 51.5154 65.6243 51.1064C66.5409 50.6972 67.5408 50.5031 68.5459 50.5393C69.5562 50.5035 70.5615 50.6978 71.4836 51.1068C72.4059 51.5156 73.2206 52.1283 73.8648 52.8975C75.3986 55.2509 76.1173 58.0323 75.9123 60.8236C76.123 63.6145 75.4041 66.3993 73.8648 68.7497Z" fill="#081D58"/>
<path d="M140.357 49.9102C137.805 47.704 134.528 46.4878 131.136 46.4878C127.744 46.4878 124.467 47.704 121.915 49.9102C119.21 52.8994 117.812 56.8229 118.025 60.8257C117.817 64.8297 119.22 68.7523 121.929 71.739C124.471 73.9661 127.751 75.196 131.15 75.196C134.548 75.196 137.828 73.9661 140.37 71.739C143.06 68.7433 144.449 64.8236 144.238 60.8257C144.451 56.827 143.062 52.9062 140.37 49.9102M136.457 68.7496C135.799 69.5024 134.985 70.1062 134.069 70.5201C133.154 70.934 132.159 71.1483 131.152 71.1483C130.145 71.1483 129.15 70.934 128.234 70.5201C127.319 70.1062 126.504 69.5024 125.847 68.7496C124.307 66.3989 123.583 63.6182 123.783 60.8257C123.589 58.0333 124.313 55.2537 125.847 52.8996C126.512 52.1585 127.328 51.5651 128.243 51.1586C129.157 50.752 130.149 50.5418 131.152 50.5418C132.155 50.5418 133.146 50.752 134.061 51.1586C134.976 51.5651 135.792 52.1585 136.457 52.8996C137.989 55.2548 138.708 58.0362 138.505 60.828C138.714 63.6191 137.995 66.3989 136.457 68.7496Z" fill="#081D58"/>
<path d="M42.4814 74.54C42.2402 74.2831 42.0537 73.981 41.9329 73.6515C41.8121 73.322 41.7595 72.9719 41.7784 72.622V62.6588L51.1878 47.0918H44.745C45.2 47.541 45.2546 48.2822 44.6904 49.1581L39.5967 57.8725C35.3129 50.216 35.3174 49.9981 34.5416 48.6011C33.9388 47.55 33.4246 47.0918 32.2803 47.0918H27.207C27.8732 47.7955 28.4396 48.5849 28.8905 49.4389L36.398 62.5869V72.6197C36.4171 72.9696 36.3648 73.3196 36.2445 73.6488C36.1241 73.9783 35.938 74.2806 35.6973 74.5378L42.4814 74.54Z" fill="#081D58"/>
<path d="M90.6211 74.5399C90.8638 74.2839 91.0518 73.982 91.1735 73.6523C91.295 73.3226 91.3477 72.9722 91.3286 72.6219V49.0008C91.3491 48.6506 91.2968 48.3003 91.1753 47.9708C91.0536 47.6413 90.865 47.3399 90.6211 47.085H99.828C104.242 47.085 108.095 49.1872 108.095 53.2704C108.121 54.3146 107.872 55.3475 107.374 56.269C106.877 57.1906 106.146 57.9695 105.254 58.5305C106.741 59.0271 108.033 59.9715 108.949 61.2309C109.864 62.4904 110.357 64.0013 110.357 65.5515C110.358 66.856 110.057 68.1434 109.476 69.3149C108.895 70.4864 108.05 71.511 107.006 72.3097C104.954 73.8632 102.411 74.6509 99.828 74.5332L90.6211 74.5399ZM96.7181 57.4569C98.0476 57.589 99.3901 57.4286 100.649 56.9875C101.224 56.765 101.714 56.3715 102.053 55.8616C102.391 55.352 102.56 54.751 102.538 54.1419C102.513 53.7043 102.399 53.2763 102.205 52.8823C102.01 52.4886 101.738 52.1369 101.404 51.8483C101.07 51.5594 100.682 51.3391 100.26 51.2005C99.8394 51.0617 99.3946 51.0071 98.9521 51.0401C98.1971 51.0148 97.4427 51.1095 96.7181 51.3209V57.4569ZM102.742 69.9177C103.407 69.4844 103.941 68.8814 104.287 68.1728C104.632 67.4642 104.777 66.6763 104.706 65.8929C104.674 65.2559 104.511 64.6322 104.225 64.0602C103.94 63.4883 103.538 62.9805 103.045 62.5681C102.552 62.156 101.979 61.8483 101.36 61.6641C100.742 61.48 100.092 61.4231 99.4504 61.4975C98.5379 61.4885 97.6256 61.541 96.7204 61.6547V70.4522C98.7294 70.9834 100.864 70.7932 102.745 69.9154" fill="#081D58"/>
<path d="M2.98096 72.6217C2.99979 72.9718 2.94706 73.322 2.82589 73.6515C2.70475 73.9809 2.51763 74.283 2.27571 74.5397H9.07341C8.83128 74.2832 8.64402 73.9812 8.52286 73.6517C8.40169 73.322 8.34907 72.9718 8.36816 72.6217V61.8971L16.2601 73.0327C16.4773 73.4888 16.8226 73.874 17.2549 74.1424C17.6871 74.4106 18.1883 74.551 18.6989 74.5465H24.1589C23.4147 73.8419 22.7575 73.0536 22.2002 72.1972L13.2822 59.7229L22.3822 47.0915H15.6959C16.0417 47.5407 16.0872 48.1 15.4343 49.1803L8.38181 59.2378V49.0006C8.36154 48.6504 8.41359 48.2996 8.53482 47.9699C8.65606 47.6402 8.84395 47.3383 9.08706 47.0825H2.27344C2.51633 47.3386 2.70409 47.6404 2.8253 47.9701C2.94653 48.2998 2.9987 48.6504 2.97868 49.0006L2.98096 72.6217Z" fill="#081D58"/>
<path d="M152.958 9.49831C152.326 8.92292 151.584 8.47848 150.776 8.19126C149.967 7.90404 149.108 7.77991 148.25 7.82618C147.392 7.87247 146.551 8.08822 145.779 8.46069C145.007 8.83317 144.318 9.35477 143.754 9.99468C140.539 13.3322 138.039 14.5743 135.061 14.4485C130.902 14.271 128.85 11.0975 126.714 7.09061C125.878 5.18049 124.502 3.54873 122.751 2.39077C121 1.2328 118.948 0.597706 116.84 0.561523C115.373 0.571541 113.924 0.876816 112.581 1.45871C111.237 2.04058 110.028 2.88684 109.027 3.94571C108.027 5.00461 107.255 6.25389 106.76 7.61716C106.265 8.98046 106.057 10.4291 106.148 11.8746C106.23 15.4361 107.305 18.9063 109.256 21.9029C111.208 24.8997 113.959 27.3065 117.207 28.8587C120.83 30.6535 124.815 31.62 128.868 31.6864C128.594 34.1168 128.06 36.5115 127.276 38.8309H134.927C134.109 36.4365 133.565 33.9596 133.305 31.4461C144.511 30.0109 149.83 24.9799 152.747 20.1915C153.979 18.3325 154.671 16.175 154.746 13.9544C154.769 13.132 154.624 12.3135 154.321 11.5476C154.016 10.7817 153.559 10.084 152.976 9.49607M116.893 15.2413C116.118 15.2945 115.345 15.1195 114.672 14.7383C113.998 14.3572 113.454 13.7872 113.109 13.1006C112.764 12.4139 112.633 11.6416 112.734 10.8815C112.834 10.1215 113.16 9.40787 113.672 8.83126C114.183 8.25464 114.857 7.84095 115.607 7.64268C116.356 7.4444 117.149 7.47046 117.884 7.71754C118.619 7.96462 119.263 8.42161 119.735 9.03054C120.206 9.63948 120.484 10.3729 120.533 11.1379C120.598 12.1579 120.252 13.1621 119.57 13.931C118.888 14.6998 117.926 15.1709 116.893 15.2413Z" fill="#6DB329"/>
<path d="M257.97 57.4258H253.746V69.9135H245.674V73.1836H270.74V69.9135H257.982L257.97 57.4258Z" fill="#081D58"/>
<path d="M263.583 66.7391H266.338C267.371 61.5015 268.103 54.9544 268.531 50.568C268.77 48.2007 268.781 46.9609 266.627 46.9609H247.799V50.2289H263.583V66.7391Z" fill="#081D58"/>
<path d="M221.363 57.6995H239.687V46.8491H218.74V55.1076C218.687 55.4602 218.719 55.8198 218.832 56.1583C218.945 56.4968 219.136 56.8042 219.391 57.0569C219.646 57.3094 219.956 57.4998 220.299 57.6128C220.641 57.726 221.005 57.7588 221.363 57.7085M234.973 54.4316H223.456V50.117H234.973V54.4316Z" fill="#081D58"/>
<path d="M224.026 65.3652H219.316V71.8045C219.263 72.156 219.294 72.5149 219.406 72.8527C219.518 73.1903 219.709 73.4975 219.962 73.7497C220.216 74.002 220.526 74.192 220.867 74.3052C221.208 74.4181 221.572 74.4509 221.928 74.4008H239.74V71.1307H224.023L224.026 65.3652Z" fill="#081D58"/>
<path d="M216.381 63.2448H227.328V68.3387H232.039V63.2448H242.015V59.9746H216.381V63.2448Z" fill="#081D58"/>
<path d="M172.917 58.3102H168.695V69.9129H165.817V58.3102H161.59V69.9129H155.875V73.1853H181.969V69.9129H172.908L172.917 58.3102Z" fill="#081D58"/>
<path d="M175.298 66.7391H178.051C179.086 61.5015 179.814 54.9544 180.246 50.568C180.474 48.2007 180.499 46.9609 178.34 46.9609H158.697V50.2289H175.305L175.298 66.7391Z" fill="#081D58"/>
<path d="M201.536 64.332H196.824V69.9156H186.043V73.1857H212.16V69.9133H201.536V64.332Z" fill="#081D58"/>
<path d="M192.327 62.5713H205.864C206.221 62.6214 206.584 62.5886 206.926 62.4759C207.268 62.3629 207.579 62.1729 207.833 61.9209C208.088 61.6691 208.279 61.3619 208.393 61.0241C208.506 60.6863 208.538 60.3271 208.487 59.975V46.6899H203.766V52.0803H194.42V46.6899H189.7V59.975C189.648 60.3276 189.68 60.6872 189.794 61.0254C189.908 61.3637 190.1 61.6709 190.355 61.9231C190.61 62.1751 190.921 62.3649 191.263 62.4775C191.606 62.59 191.97 62.6221 192.327 62.5713ZM203.768 55.337V59.7594H194.423V55.337H203.768Z" fill="#081D58"/>
</g>
<defs>
<clipPath id="clip0_102_289">
<rect width="273" height="75" fill="white"/>
</clipPath>
</defs>
</svg>
